<svg id="visual" viewBox="0 0 1366 500" width="1366" height="500" xmlns="http://www.w3.org/2000/svg" xmlns:xlink="http://www.w3.org/1999/xlink" version="1.1"><path d="M0 188L32.5 183.7C65 179.3 130 170.7 195 168.3C260 166 325 170 390 172.3C455 174.7 520 175.3 585.2 174.7C650.3 174 715.7 172 780.8 165.8C846 159.7 911 149.3 976 148.5C1041 147.7 1106 156.3 1171 166.5C1236 176.7 1301 188.3 1333.5 194.2L1366 200L1366 0L1333.5 0C1301 0 1236 0 1171 0C1106 0 1041 0 976 0C911 0 846 0 780.8 0C715.7 0 650.3 0 585.2 0C520 0 455 0 390 0C325 0 260 0 195 0C130 0 65 0 32.5 0L0 0Z" fill="#841da1"></path><path d="M0 101L32.5 108.2C65 115.3 130 129.7 195 131.5C260 133.3 325 122.7 390 116.7C455 110.7 520 109.3 585.2 111.3C650.3 113.3 715.7 118.7 780.8 127.8C846 137 911 150 976 151C1041 152 1106 141 1171 131.2C1236 121.3 1301 112.7 1333.5 108.3L1366 104L1366 0L1333.5 0C1301 0 1236 0 1171 0C1106 0 1041 0 976 0C911 0 846 0 780.8 0C715.7 0 650.3 0 585.2 0C520 0 455 0 390 0C325 0 260 0 195 0C130 0 65 0 32.5 0L0 0Z" fill="#6a1e80"></path><path d="M0 78L32.5 84C65 90 130 102 195 108.2C260 114.3 325 114.7 390 116C455 117.3 520 119.7 585.2 114.8C650.3 110 715.7 98 780.8 94.5C846 91 911 96 976 96.7C1041 97.3 1106 93.7 1171 89.7C1236 85.7 1301 81.3 1333.5 79.2L1366 77L1366 0L1333.5 0C1301 0 1236 0 1171 0C1106 0 1041 0 976 0C911 0 846 0 780.8 0C715.7 0 650.3 0 585.2 0C520 0 455 0 390 0C325 0 260 0 195 0C130 0 65 0 32.5 0L0 0Z" fill="#511d61"></path><path d="M0 87L32.5 80.2C65 73.3 130 59.7 195 53.8C260 48 325 50 390 55.5C455 61 520 70 585.2 70.3C650.3 70.7 715.7 62.3 780.8 59C846 55.7 911 57.3 976 63C1041 68.7 1106 78.3 1171 81.3C1236 84.3 1301 80.7 1333.5 78.8L1366 77L1366 0L1333.5 0C1301 0 1236 0 1171 0C1106 0 1041 0 976 0C911 0 846 0 780.8 0C715.7 0 650.3 0 585.2 0C520 0 455 0 390 0C325 0 260 0 195 0C130 0 65 0 32.5 0L0 0Z" fill="#391943"></path><path d="M0 45L32.5 44.2C65 43.3 130 41.7 195 41.8C260 42 325 44 390 47C455 50 520 54 585.2 49.7C650.3 45.3 715.7 32.7 780.8 28.7C846 24.7 911 29.3 976 32.8C1041 36.3 1106 38.7 1171 38.8C1236 39 1301 37 1333.5 36L1366 35L1366 0L1333.5 0C1301 0 1236 0 1171 0C1106 0 1041 0 976 0C911 0 846 0 780.8 0C715.7 0 650.3 0 585.2 0C520 0 455 0 390 0C325 0 260 0 195 0C130 0 65 0 32.5 0L0 0Z" fill="#231427"></path></svg>