<svg id="visual" viewBox="0 0 500 400" width="500" height="400" xmlns="http://www.w3.org/2000/svg" xmlns:xlink="http://www.w3.org/1999/xlink" version="1.1"><path d="M0 150L11.8 146.5C23.7 143 47.3 136 71.2 134.2C95 132.3 119 135.7 142.8 137.7C166.7 139.7 190.3 140.3 214.2 139.8C238 139.3 262 137.7 285.8 132.7C309.7 127.7 333.3 119.3 357.2 118.7C381 118 405 125 428.8 133C452.7 141 476.3 150 488.2 154.5L500 159L500 0L488.2 0C476.3 0 452.7 0 428.8 0C405 0 381 0 357.2 0C333.3 0 309.7 0 285.8 0C262 0 238 0 214.2 0C190.3 0 166.7 0 142.8 0C119 0 95 0 71.2 0C47.3 0 23.7 0 11.8 0L0 0Z" fill="#841da1"></path><path d="M0 81L11.8 86.7C23.7 92.3 47.3 103.7 71.2 105.2C95 106.7 119 98.3 142.8 93.5C166.7 88.7 190.3 87.3 214.2 88.8C238 90.3 262 94.7 285.8 102C309.7 109.3 333.3 119.7 357.2 120.5C381 121.3 405 112.7 428.8 104.8C452.7 97 476.3 90 488.2 86.5L500 83L500 0L488.2 0C476.3 0 452.7 0 428.8 0C405 0 381 0 357.2 0C333.3 0 309.7 0 285.8 0C262 0 238 0 214.2 0C190.3 0 166.7 0 142.8 0C119 0 95 0 71.2 0C47.3 0 23.7 0 11.8 0L0 0Z" fill="#6a1e80"></path><path d="M0 62L11.8 66.8C23.7 71.7 47.3 81.3 71.2 86.3C95 91.3 119 91.7 142.8 92.8C166.7 94 190.3 96 214.2 92.2C238 88.3 262 78.7 285.8 75.8C309.7 73 333.3 77 357.2 77.5C381 78 405 75 428.8 71.7C452.7 68.3 476.3 64.7 488.2 62.8L500 61L500 0L488.2 0C476.3 0 452.7 0 428.8 0C405 0 381 0 357.2 0C333.3 0 309.7 0 285.8 0C262 0 238 0 214.2 0C190.3 0 166.7 0 142.8 0C119 0 95 0 71.2 0C47.3 0 23.7 0 11.8 0L0 0Z" fill="#511d61"></path><path d="M0 70L11.8 64.5C23.7 59 47.3 48 71.2 43.2C95 38.3 119 39.7 142.8 44C166.7 48.3 190.3 55.7 214.2 56C238 56.3 262 49.7 285.8 47C309.7 44.3 333.3 45.7 357.2 50.2C381 54.7 405 62.3 428.8 64.7C452.7 67 476.3 64 488.2 62.5L500 61L500 0L488.2 0C476.3 0 452.7 0 428.8 0C405 0 381 0 357.2 0C333.3 0 309.7 0 285.8 0C262 0 238 0 214.2 0C190.3 0 166.7 0 142.8 0C119 0 95 0 71.2 0C47.3 0 23.7 0 11.8 0L0 0Z" fill="#391943"></path><path d="M0 36L11.8 35.3C23.7 34.7 47.3 33.3 71.2 33.5C95 33.7 119 35.3 142.8 37.7C166.7 40 190.3 43 214.2 39.5C238 36 262 26 285.8 22.8C309.7 19.7 333.3 23.3 357.2 26C381 28.7 405 30.3 428.8 30.5C452.7 30.7 476.3 29.3 488.2 28.7L500 28L500 0L488.2 0C476.3 0 452.7 0 428.8 0C405 0 381 0 357.2 0C333.3 0 309.7 0 285.8 0C262 0 238 0 214.2 0C190.3 0 166.7 0 142.8 0C119 0 95 0 71.2 0C47.3 0 23.7 0 11.8 0L0 0Z" fill="#231427"></path></svg>